Coordinates
version=1
nRows=34
nColumns=38
inDegrees=no

Units are S.I. units (second, meters, Newtons, ...)
If the header above contains a line with 'inDegrees', this indicates whether rotational values are in degrees (yes) or radians (no).

endheader
time	pelvis_tilt	pelvis_list	pelvis_rotation	pelvis_tx	pelvis_ty	pelvis_tz	hip_flexion_r	hip_adduction_r	hip_rotation_r	knee_angle_r	ankle_angle_r	subtalar_angle_r	mtp_angle_r	hip_flexion_l	hip_adduction_l	hip_rotation_l	knee_angle_l	ankle_angle_l	subtalar_angle_l	mtp_angle_l	lumbar_extension	lumbar_bending	lumbar_rotation	arm_flex_r	arm_add_r	arm_rot_r	elbow_flex_r	pro_sup_r	wrist_flex_r	wrist_dev_r	arm_flex_l	arm_add_l	arm_rot_l	elbow_flex_l	pro_sup_l	wrist_flex_l	wrist_dev_l
0.03	-0.0318616	-0.0523223	-0.0304237	0.718494	1.01798	-0.281376	0.814393	0.0258135	-0.121224	-1.26376	0.236203	0.1	-1.54716e-05	-0.366265	-0.0461133	-0.268316	-0.356231	0.0260486	0.1	-4.62513e-05	-0.226513	0.0607969	-0.204044	-0.71154	-0.269948	-0.265082	1.60055	1.28472	0.0267923	-0.0465805	-0.00858191	-0.343986	-0.118256	1.90637	1.73101	0.1	-0.0268818
0.04	-0.0508147	-0.0497756	-0.0341742	0.720982	1.02046	-0.280294	0.811063	0.0293511	-0.14463	-1.07382	0.282577	0.1	-1.54716e-05	-0.378773	-0.044233	-0.253156	-0.369136	-0.0819341	0.1	-4.62513e-05	-0.19993	0.0595049	-0.215201	-0.736655	-0.251812	-0.275755	1.60776	1.28687	0.0267923	-0.0465805	-0.00488595	-0.345289	-0.0864071	1.9373	1.75714	0.1	-0.0268818
0.05	-0.064259	-0.045245	-0.0366064	0.723017	1.02226	-0.279594	0.802395	0.0297206	-0.167942	-0.906547	0.323022	0.1	-1.54716e-05	-0.385887	-0.039879	-0.233375	-0.402548	-0.166817	0.1	-4.62513e-05	-0.180999	0.0561799	-0.224062	-0.75478	-0.235614	-0.284457	1.61388	1.2894	0.0267923	-0.0465805	-0.00131022	-0.346788	-0.0545047	1.96042	1.78118	0.1	-0.0268818
0.06	-0.0721646	-0.0388773	-0.0377366	0.724606	1.02342	-0.27926	0.788459	0.027045	-0.191105	-0.76227	0.357284	0.1	-1.54716e-05	-0.387706	-0.033257	-0.20937	-0.456251	-0.229253	0.1	-4.62513e-05	-0.169754	0.0509727	-0.230586	-0.765954	-0.221411	-0.291182	1.61899	1.29229	0.0267923	-0.0465805	0.00209036	-0.348443	-0.022625	1.97579	1.803	0.1	-0.0268818
0.07	-0.0744792	-0.0311221	-0.0376221	0.725795	1.02405	-0.279252	0.769474	0.0217359	-0.213888	-0.641753	0.384585	0.1	-1.54716e-05	-0.384493	-0.0250148	-0.182347	-0.529507	-0.271288	0.1	-4.62513e-05	-0.166232	0.0443476	-0.234652	-0.770299	-0.20938	-0.295924	1.62326	1.29541	0.0267923	-0.0465805	0.00514713	-0.350126	0.00899744	1.98351	1.82217	0.1	-0.0268818
0.08	-0.071232	-0.0228023	-0.0363814	0.726604	1.02424	-0.279484	0.745847	0.0145904	-0.235796	-0.546005	0.403551	0.1	-1.54716e-05	-0.37666	-0.0163451	-0.15437	-0.620805	-0.296692	0.1	-4.62513e-05	-0.170352	0.0371427	-0.236054	-0.768059	-0.199832	-0.298704	1.62696	1.29854	0.0267923	-0.0465805	0.00754876	-0.351618	0.0399273	1.9838	1.83802	0.1	-0.0268818
0.09	-0.0627011	-0.0150497	-0.0342073	0.727027	1.02401	-0.279841	0.718215	0.00674607	-0.256108	-0.475853	0.412495	0.1	-1.54716e-05	-0.364625	-0.00887648	-0.127963	-0.727731	-0.31057	0.1	-4.62513e-05	-0.181742	0.030484	-0.234516	-0.759595	-0.19317	-0.299608	1.63048	1.30142	0.0267923	-0.0465805	0.00885583	-0.352624	0.069541	1.97688	1.8498	0.1	-0.0268818
0.1	-0.0495583	-0.00909667	-0.0313738	0.727042	1.02336	-0.280197	0.687495	-0.000394037	-0.273794	-0.431469	0.409962	0.1	-1.54716e-05	-0.348624	-0.0044218	-0.105573	-0.847047	-0.318287	0.1	-4.62513e-05	-0.19956	0.0256011	-0.229724	-0.745358	-0.189811	-0.298814	1.63414	1.30378	0.0267923	-0.0465805	0.00855751	-0.352816	0.0970887	1.96296	1.85695	0.1	-0.0268818
0.11	-0.0329356	-0.00606402	-0.0282327	0.726643	1.0222	-0.280438	0.654925	-0.00530539	-0.287422	-0.41209	0.395529	0.1	-1.54716e-05	-0.328519	-0.0046249	-0.0890088	-0.974933	-0.324129	0.1	-4.62513e-05	-0.222392	0.0235802	-0.221355	-0.725837	-0.190102	-0.296584	1.63811	1.30542	0.0267923	-0.0465805	0.00615795	-0.351886	0.121782	1.94212	1.85935	0.1	-0.0268818
0.12	-0.0143872	-0.00676784	-0.0251897	0.725841	1.02039	-0.280477	0.622023	-0.00657069	-0.295407	-0.416016	0.370629	0.1	-1.54716e-05	-0.303713	-0.01062	-0.0790416	-1.10733	-0.330312	0.1	-4.62513e-05	-0.248313	0.0251543	-0.209137	-0.701504	-0.194258	-0.293208	1.64237	1.30628	0.0267923	-0.0465805	0.00127343	-0.349592	0.142886	1.91434	1.85755	0.1	-0.0268818
0.13	0.00428625	-0.0115956	-0.0226614	0.724674	1.01774	-0.280269	0.590408	-0.00316831	-0.296664	-0.440783	0.339111	0.1	-1.54716e-05	-0.273197	-0.0227934	-0.0752649	-1.24026	-0.336776	0.1	-4.62513e-05	-0.275091	0.03059	-0.1929	-0.672775	-0.20235	-0.288931	1.6466	1.30642	0.0267923	-0.0465805	-0.0062892	-0.345808	0.159791	1.8795	1.85281	0.1	-0.0268818
0.14	0.021324	-0.0204795	-0.0210251	0.723182	1.0142	-0.27981	0.561472	0.00536682	-0.290885	-0.483257	0.307101	0.1	-1.54716e-05	-0.235725	-0.0406904	-0.0762463	-1.37013	-0.341744	0.1	-4.62513e-05	-0.300507	0.0396688	-0.172645	-0.639996	-0.214318	-0.283876	1.65033	1.30599	0.0267923	-0.0465805	-0.0165071	-0.340547	0.172052	1.83755	1.84704	0.1	-0.0268818
0.15	0.0352525	-0.0328792	-0.0205517	0.721428	1.00977	-0.279154	0.535944	0.0189103	-0.27849	-0.53958	0.282003	0.1	-1.54716e-05	-0.19011	-0.063056	-0.0798662	-1.4938	-0.342756	0.1	-4.62513e-05	-0.322712	0.0517619	-0.148603	-0.603472	-0.230006	-0.278023	1.65304	1.30516	0.0267923	-0.0465805	-0.0291901	-0.333976	0.179395	1.78872	1.84247	0.1	-0.0268818
0.16	0.0451766	-0.0478732	-0.0213412	0.71949	1.00475	-0.278385	0.513538	0.0367869	-0.260268	-0.60503	0.270757	0.1	-1.54716e-05	-0.135538	-0.0879531	-0.0837522	-1.60859	-0.337659	0.1	-4.62513e-05	-0.340466	0.0658958	-0.121293	-0.563549	-0.249172	-0.271255	1.65433	1.30405	0.0267923	-0.0465805	-0.0440965	-0.32641	0.181709	1.7337	1.84125	0.1	-0.0268818
0.17	0.0508618	-0.0642014	-0.0232642	0.717447	0.999576	-0.277587	0.49279	0.0577605	-0.237311	-0.674085	0.278071	0.1	-1.54716e-05	-0.0718535	-0.112962	-0.0857525	-1.71216	-0.325153	0.1	-4.62513e-05	-0.353259	0.0808331	-0.0915431	-0.520732	-0.271472	-0.263486	1.65412	1.30271	0.0267923	-0.0465805	-0.0610843	-0.318295	0.179031	1.67392	1.84496	0.1	-0.0268818
0.18	0.0527025	-0.0803178	-0.0259483	0.715345	0.99463	-0.27683	0.471209	0.0800504	-0.210955	-0.740729	0.305147	0.1	-1.54716e-05	0.000280394	-0.135412	-0.0843476	-1.80243	-0.30488	0.1	-4.62513e-05	-0.361249	0.0951378	-0.06046	-0.475808	-0.296417	-0.254836	1.65274	1.3011	0.0267923	-0.0465805	-0.0802487	-0.310189	0.171545	1.61161	1.85421	0.1	-0.0268818
0.19	0.0515373	-0.0944861	-0.0288318	0.713223	0.990145	-0.276189	0.445724	0.101351	-0.182924	-0.799049	0.349457	0.1	-1.54716e-05	0.0793786	-0.152635	-0.0789349	-1.87755	-0.27725	0.1	-4.62513e-05	-0.365059	0.107235	-0.0293255	-0.429938	-0.323321	-0.24579	1.65099	1.29917	0.0267923	-0.0465805	-0.102002	-0.302727	0.159565	1.54973	1.86831	0.1	-0.0268818
0.2	0.0483886	-0.104906	-0.03128	0.711167	0.986292	-0.275769	0.413352	0.11899	-0.155401	-0.843959	0.405511	0.1	-1.54716e-05	0.163305	-0.162257	-0.0699429	-1.93586	-0.243226	0.1	-4.62513e-05	-0.365482	0.115514	0.00057909	-0.384651	-0.351274	-0.237276	1.65006	1.29697	0.0267923	-0.0465805	-0.127066	-0.296572	0.143513	1.49175	1.88535	0.1	-0.0268818
0.21	0.0441792	-0.109941	-0.0327466	0.709336	0.98326	-0.275647	0.371881	0.130266	-0.130898	-0.871815	0.466132	0.1	-1.54716e-05	0.24958	-0.162531	-0.058748	-1.97605	-0.204165	0.1	-4.62513e-05	-0.363172	0.118472	0.0281694	-0.341734	-0.379184	-0.23058	1.65136	1.29471	0.0267923	-0.0465805	-0.156368	-0.292338	0.123872	1.44125	1.90245	0.1	-0.0268818
0.22	0.0394858	-0.108368	-0.0329029	0.707929	0.981205	-0.275829	0.32036	0.132911	-0.112012	-0.880749	0.523736	0.1	-1.54716e-05	0.335709	-0.152638	-0.0473745	-1.9972	-0.161739	0.1	-4.62513e-05	-0.358438	0.114935	0.0527294	-0.303031	-0.405881	-0.227103	1.65621	1.29274	0.0267923	-0.0465805	-0.190858	-0.290491	0.101132	1.4014	1.91635	0.1	-0.0268818
0.23	0.0344335	-0.0995928	-0.0317074	0.707135	0.980187	-0.276297	0.259255	0.12554	-0.101099	-0.870682	0.57128	0.1	-1.54716e-05	0.41943	-0.132896	-0.0380494	-1.99878	-0.1178	0.1	-4.62513e-05	-0.351211	0.104284	0.0740052	-0.27018	-0.430285	-0.228023	1.66562	1.29148	0.0267923	-0.0465805	-0.231278	-0.291238	0.0757395	1.3745	1.92413	0.1	-0.0268818
0.24	0.0287895	-0.0838008	-0.0294021	0.707119	0.980172	-0.277052	0.190257	0.107935	-0.0999415	-0.843075	0.602786	0.1	-1.54716e-05	0.498805	-0.104755	-0.0327203	-1.98069	-0.0741594	0.1	-4.62513e-05	-0.341172	0.0866214	0.0921991	-0.244373	-0.451583	-0.233953	1.68011	1.29121	0.0267923	-0.0465805	-0.277943	-0.294437	0.0480717	1.36159	1.92383	0.1	-0.0268818
0.25	0.0221779	-0.0619585	-0.0264587	0.70799	0.98107	-0.278092	0.115866	0.0810849	-0.109446	-0.800591	0.613628	0.1	-1.54716e-05	0.572157	-0.070589	-0.0326751	-1.94309	-0.0322905	0.1	-4.62513e-05	-0.328013	0.0628133	0.107877	-0.22617	-0.469349	-0.244746	1.6996	1.29202	0.0267923	-0.0465805	-0.330579	-0.299561	0.0184374	1.36236	1.91486	0.1	-0.0268818
0.26	0.0143045	-0.0356713	-0.0234998	0.709777	0.982769	-0.27939	0.0389563	0.0469774	-0.129419	-0.746786	0.600768	0.1	-1.54716e-05	0.63797	-0.0333157	-0.0383463	-1.88633	0.00693399	0.1	-4.62513e-05	-0.311685	0.0343926	0.121824	-0.215423	-0.48358	-0.259487	1.72353	1.29374	0.0267923	-0.0465805	-0.388266	-0.305747	-0.0128874	1.37527	1.89805	0.1	-0.0268818
0.27	0.00511679	-0.00695443	-0.0212126	0.712408	0.985142	-0.280917	-0.0375453	0.00823335	-0.158476	-0.685903	0.562998	0.1	-1.54716e-05	0.694837	0.00402585	-0.0493157	-1.81085	0.043377	0.1	-4.62513e-05	-0.292518	0.00336248	0.134884	-0.211332	-0.494638	-0.276686	1.75089	1.29611	0.0267923	-0.0465805	-0.449481	-0.311918	-0.0456003	1.39782	1.87552	0.1	-0.0268818
0.28	-0.00518643	0.0219949	-0.0202474	0.715715	0.988043	-0.282622	-0.110854	-0.0322475	-0.193946	-0.622662	0.501042	0.1	-1.54716e-05	0.741506	0.0386615	-0.0644792	-1.71724	0.0775893	0.1	-4.62513e-05	-0.271222	-0.0280591	0.147815	-0.212613	-0.503106	-0.294603	1.78046	1.29893	0.0267923	-0.0465805	-0.512229	-0.316952	-0.0793099	1.42698	1.85015	0.1	-0.0268818
0.29	-0.0162257	0.049044	-0.0211149	0.719451	0.991301	-0.284406	-0.178443	-0.0715796	-0.231951	-0.562043	0.417566	0.1	-1.54716e-05	0.776997	0.0683535	-0.0823173	-1.60629	0.110629	0.1	-4.62513e-05	-0.248764	-0.0576775	0.161186	-0.217744	-0.50962	-0.311607	1.81093	1.30221	0.0267923	-0.0465805	-0.57423	-0.319869	-0.113494	1.4596	1.825	0.1	-0.0268818
0.3	-0.0275225	0.0723275	-0.0240959	0.723334	0.994709	-0.28613	-0.238153	-0.107142	-0.267801	-0.509009	0.317131	0.1	-1.54716e-05	0.800717	0.0915578	-0.101213	-1.47925	0.143773	0.1	-4.62513e-05	-0.226237	-0.0835436	0.175302	-0.225226	-0.514714	-0.326467	1.84104	1.30631	0.0267923	-0.0465805	-0.633123	-0.319979	-0.147501	1.49274	1.80275	0.1	-0.0268818
0.31	-0.038551	0.0904045	-0.0291822	0.727099	0.99804	-0.28764	-0.288338	-0.136745	-0.296557	-0.468184	0.205996	0.1	-1.54716e-05	0.812549	0.107466	-0.119771	-1.33814	0.178161	0.1	-4.62513e-05	-0.204764	-0.104141	0.190158	-0.233785	-0.518723	-0.338497	1.86968	1.31189	0.0267923	-0.0465805	-0.686676	-0.316986	-0.180586	1.52401	1.78517	0.1	-0.0268818
0.32	-0.0487474	0.102376	-0.0360558	0.730541	1.00108	-0.288795	-0.328004	-0.158776	-0.313849	-0.443536	0.0917107	0.1	-1.54716e-05	0.812882	0.115984	-0.137048	-1.18605	0.214361	0.1	-4.62513e-05	-0.185455	-0.11853	0.205411	-0.242492	-0.521765	-0.347552	1.89593	1.31974	0.0267923	-0.0465805	-0.732969	-0.311011	-0.211981	1.55167	1.7729	0.1	-0.0268818
0.33	-0.0575024	0.107962	-0.0441106	0.733534	1.00365	-0.289508	-0.356894	-0.172322	-0.316671	-0.438125	-0.0176156	0.1	-1.54716e-05	0.802612	0.117685	-0.152632	-1.02744	0.251924	0.1	-4.62513e-05	-0.169401	-0.126437	0.220381	-0.250787	-0.52379	-0.353895	1.91906	1.3306	0.0267923	-0.0465805	-0.770539	-0.302575	-0.24094	1.57476	1.76543	0.1	-0.0268818
0.34	-0.0641663	0.107537	-0.0525135	0.736015	1.00568	-0.289767	-0.375467	-0.177283	-0.304042	-0.453913	-0.11443	0.1	-1.54716e-05	0.783104	0.113731	-0.166569	-0.868173	0.289145	0.1	-4.62513e-05	-0.157653	-0.128283	0.234089	-0.258441	-0.524657	-0.358008	1.93852	1.34479	0.0267923	-0.0465805	-0.798473	-0.29253	-0.266787	1.59301	1.7614	0.1	-0.0268818
0.35	-0.0680897	0.102123	-0.0603035	0.737966	1.00708	-0.289651	-0.384763	-0.17446	-0.277369	-0.491625	-0.193108	0.1	-1.54716e-05	0.756149	0.10578	-0.179142	-0.715264	0.323111	0.1	-4.62513e-05	-0.151139	-0.125152	0.245346	-0.26548	-0.524218	-0.360404	1.95385	1.36202	0.0267923	-0.0465805	-0.816421	-0.281977	-0.28893	1.60671	1.759	0.1	-0.0268818
0.36	-0.0687346	0.0932944	-0.0665182	0.739439	1.00786	-0.289319	-0.386171	-0.165585	-0.240336	-0.550685	-0.251119	0.1	-1.54716e-05	0.723895	0.0958562	-0.190567	-0.576352	0.350127	0.1	-4.62513e-05	-0.150518	-0.118686	0.252893	-0.272092	-0.522379	-0.361489	1.96468	1.38129	0.0267923	-0.0465805	-0.824547	-0.272157	-0.306895	1.61656	1.75646	0.1	-0.0268818
